<?xml version="1.0" encoding="UTF-8"?>
<svg id="Capa_2" data-name="Capa 2" xmlns="http://www.w3.org/2000/svg" viewBox="0 0 50 50">
  <defs>
    <style>
      .cls-1 {
        fill: #fff;
      }
    </style>
  </defs>
  <g id="camara3">
    <rect width="50" height="50" rx="2.53" ry="2.53"/>
  </g>
  <g id="camara4">
    <g>
      <rect id="Linea" class="cls-1" x="37.99" y="5.3" width=".37" height="39.41"/>
      <g>
        <path id="camara01" class="cls-1" d="M33.57,20.2c-1.56,1.04-2.82,2.37-3.54,4.03-.94,2.24-.8,4.96.64,6.96.81,1.15,1.97,2.12,3.28,2.85l-.06.17c-1.56-.33-2.98-1.18-4.05-2.38-2.84-3.19-1.99-8.48,1.53-10.8.66-.44,1.36-.81,2.12-1.01l.07.17h0Z"/>
        <path id="camara02" class="cls-1" d="M31.11,37.64c-3.28-1.06-6.1-3.63-7.26-6.91-1.18-3.32-.73-7.28,1.44-10.1,1.41-1.83,3.38-3.2,5.6-3.8,0,0,.06.17.06.17-7.16,4.02-8.42,12.89-2.35,18.49.78.73,1.65,1.41,2.58,1.98l-.07.17h0Z"/>
        <path id="camara03" class="cls-1" d="M34.48,15.07v-6.72h-5.94c-1.5,0-2.29.88-2.81,2.15-.52,1.27-.52,2.67-.92,2.67-.52,0-1.7.02-1.7.02,0,0-5.29-.08-7.06-.05-.71.01-1.6.13-2.68,1.01-1.06.87-1.41,1.98-1.42,2.76-.03,2.34-.26,5.25-.3,9.35-.04,4.09,0,9.65.65,12.79.11.56.53,1.27,1.38,1.88,1.06.75,3.18.71,3.18.71h17.61v-1.81s-12.64-1.51-12.45-12.45c.21-11.56,12.45-12.32,12.45-12.32ZM20.05,18.32h-2.19c-.16,0-.29-.13-.29-.29s.13-.29.29-.29h2.19c.16,0,.29.13.29.29s-.13.29-.29.29ZM20.56,17.54h-3.28c-.47,0-.85-.38-.85-.85s.38-.85.85-.85h3.28c.47,0,.85.38.85.85s-.38.85-.85.85Z"/>
        <rect id="camara04" class="cls-1" x="15.69" y="8.89" width="6.88" height="2.24" rx="1.12" ry="1.12"/>
      </g>
    </g>
  </g>
</svg>